Coordinates
version=1
nRows=29
nColumns=24
inDegrees=yes

Units are S.I. units (second, meters, Newtons, ...)
Angles are in degrees.

endheader
time	pelvis_tilt	pelvis_list	pelvis_rotation	pelvis_tx	pelvis_ty	pelvis_tz	hip_flexion_r	hip_adduction_r	hip_rotation_r	knee_angle_r	ankle_angle_r	subtalar_angle_r	mtp_angle_r	hip_flexion_l	hip_adduction_l	hip_rotation_l	knee_angle_l	ankle_angle_l	subtalar_angle_l	mtp_angle_l	lumbar_extension	lumbar_bending	lumbar_rotation
      3.29000000	    -10.36496296	    -10.44908674	      5.90308908	     -2.72582313	     -0.02348639	      0.44974874	     23.21552038	     11.00652716	     -5.22183332	    -13.05448233	     -7.91840152	     -4.09297919	      4.12832973	     16.24695789	    -10.07461368	      5.51422085	    -58.02304933	    -28.01194141	      2.06580885	     27.73879013	      7.82210254	     11.27447625	     -3.69374744
      3.29500000	    -10.18014311	    -10.48234890	      5.89273033	     -2.72004081	     -0.02275939	      0.45032331	     22.48309672	     11.20060515	     -5.10407741	    -12.80960779	     -7.63858297	     -4.12196802	      4.12958807	     16.97358256	    -10.00656263	      5.67777311	    -59.16934047	    -27.75704103	     -0.10517014	     26.78073183	      7.58151592	     11.26226791	     -3.54531230
      3.30000000	     -9.98648616	    -10.41929117	      5.84150775	     -2.71434627	     -0.02195703	      0.45089556	     21.72891363	     11.30456204	     -4.84889063	    -12.57961255	     -7.28831655	     -4.04995974	      4.18467562	     17.66100858	     -9.83259318	      5.79430294	    -60.23447539	    -27.41698196	     -2.06062150	     25.59131445	      7.30106658	     11.16481349	     -3.35123855
      3.30500000	     -9.81224731	    -10.38802409	      5.81115838	     -2.70864471	     -0.02114473	      0.45148652	     20.99362532	     11.43585461	     -4.69502615	    -12.32258646	     -7.05458772	     -4.07579238	      4.14956412	     18.36391949	     -9.69719210	      5.93843429	    -61.17722795	    -27.02063148	     -3.87146133	     24.72934666	      7.06038537	     11.08308394	     -3.16020419
      3.31000000	     -9.64640700	    -10.20204823	      5.71734962	     -2.70296177	     -0.02024191	      0.45211515	     20.23837329	     11.42400308	     -4.36675856	    -12.07474162	     -6.74921875	     -4.04939865	      4.16388052	     19.00437360	     -9.39822726	      5.99977819	    -62.00269657	    -26.53063692	     -5.42988384	     23.67825943	      6.79982370	     10.84827457	     -2.92375579
      3.31500000	     -9.51249642	    -10.07464933	      5.67574711	     -2.69730564	     -0.01937808	      0.45271129	     19.51696100	     11.45353682	     -4.11669279	    -11.79170203	     -6.54869627	     -4.13909273	      4.08360027	     19.70024256	     -9.14950131	      6.13397295	    -62.72333368	    -26.07973618	     -6.87103209	     23.02911129	      6.59744122	     10.65953592	     -2.73696872
      3.32000000	     -9.40002774	     -9.83501567	      5.56717183	     -2.69167610	     -0.01845785	      0.45337469	     18.80698423	     11.38258449	     -3.75663550	    -11.52827149	     -6.32629731	     -4.22158383	      4.02665965	     20.35524235	     -8.79626023	      6.18211428	    -63.31663558	    -25.54997153	     -8.06087690	     22.41364843	      6.39220722	     10.35646205	     -2.47420828
      3.32500000	     -9.31303293	     -9.56683611	      5.44428615	     -2.68607393	     -0.01753796	      0.45405316	     18.12190354	     11.27954849	     -3.38199075	    -11.26325896	     -6.13054195	     -4.33127842	      3.94894761	     21.01348015	     -8.41784855	      6.21211757	    -63.80479856	    -24.92994299	     -9.00576236	     21.94826385	      6.21394116	     10.02427039	     -2.20902746
      3.33000000	     -9.24424605	     -9.28632779	      5.27909242	     -2.68049221	     -0.01661076	      0.45475247	     17.44908942	     11.16659873	     -2.95059288	    -10.98979311	     -5.97262792	     -4.43855428	      3.85764588	     21.66292743	     -8.04372300	      6.19010812	    -64.19340870	    -24.22506788	     -9.74639487	     21.55871912	      6.04807744	      9.68647882	     -1.89462519
      3.33500000	     -9.23691975	     -8.98454289	      5.20424771	     -2.67493880	     -0.01574439	      0.45536410	     16.84871702	     10.98603093	     -2.64542491	    -10.71109603	     -5.76149018	     -4.48256727	      3.82603581	     22.38012154	     -7.60295195	      6.27828034	    -64.46642729	    -23.47610983	    -10.25522356	     21.56312740	      5.97315476	      9.30331939	     -1.75318458
      3.34000000	     -9.21513256	     -8.55029055	      4.90142587	     -2.66941703	     -0.01475902	      0.45625378	     16.22933230	     10.74151013	     -2.07363417	    -10.48468513	     -5.62094979	     -4.64657678	      3.68407696	     22.97282236	     -7.13225764	      6.05566290	    -64.60772295	    -22.62419333	    -10.59548541	     21.31231019	      5.82041888	      8.81368983	     -1.27643802
      3.34500000	     -9.22836470	     -8.13522324	      4.69351084	     -2.66394206	     -0.01383682	      0.45702252	     15.65123504	     10.46962435	     -1.60646275	    -10.23279134	     -5.45706998	     -4.75013943	      3.59943582	     23.62056495	     -6.64053078	      5.94514200	    -64.66376525	    -21.71102833	    -10.73646880	     21.26361854	      5.73134834	      8.32926186	     -0.97043986
      3.35000000	     -9.26681041	     -7.68975185	      4.46300368	     -2.65847105	     -0.01293582	      0.45782604	     15.10038723	     10.16085186	     -1.14618265	     -9.98000839	     -5.26989281	     -4.81400501	      3.54246988	     24.26509491	     -6.13608719	      5.78921354	    -64.61151480	    -20.78228593	    -10.74768138	     21.30483594	      5.67197643	      7.81337049	     -0.64868733
      3.35500000	     -9.32858897	     -7.20892684	      4.21548309	     -2.65303178	     -0.01202868	      0.45863117	     14.58494307	      9.80434846	     -0.73253453	     -9.73641726	     -5.09923510	     -4.82216420	      3.50986447	     24.90138635	     -5.60316348	      5.60326338	    -64.44291386	    -19.87076371	    -10.68088083	     21.41691375	      5.63510873	      7.26405587	     -0.30776426
      3.36000000	     -9.39543734	     -6.72701640	      3.94328781	     -2.64759782	     -0.01117911	      0.45946904	     14.06836273	      9.44409211	     -0.26873812	     -9.47571432	     -4.89056001	     -4.79932801	      3.50135305	     25.52456737	     -5.09508101	      5.37647868	    -64.19276666	    -18.95059871	    -10.51078941	     21.55260094	      5.61118518	      6.71763883	      0.03558614
      3.36500000	     -9.47064422	     -6.23648710	      3.67160499	     -2.64223117	     -0.01035588	      0.46026666	     13.58589524	      9.06058877	      0.13170840	     -9.23999557	     -4.70101384	     -4.74715443	      3.51545467	     26.13820464	     -4.57785116	      5.14391809	    -63.84759181	    -18.07543162	    -10.34306396	     21.69906630	      5.59213160	      6.16926632	      0.37293993
      3.37000000	     -9.54690520	     -5.75939355	      3.39061154	     -2.63683820	     -0.00959956	      0.46107012	     13.09933305	      8.68510822	      0.53077679	     -8.98430408	     -4.48966121	     -4.66682855	      3.55405151	     26.73726982	     -4.09410745	      4.88730383	    -63.42568043	    -17.25117455	    -10.16202418	     21.84498297	      5.59000263	      5.63802852	      0.70758303
      3.37500000	     -9.61503546	     -5.30263552	      3.08288283	     -2.63142912	     -0.00889921	      0.46187991	     12.60521340	      8.32800610	      0.93643067	     -8.71945855	     -4.27815184	     -4.55502608	      3.61208822	     27.30974273	     -3.65812788	      4.59618311	    -62.93150618	    -16.47315482	     -9.97575507	     21.97879438	      5.58865706	      5.13663192	      1.06054812
      3.38000000	     -9.67666347	     -4.86701991	      2.78154344	     -2.62603263	     -0.00827512	      0.46263666	     12.11648251	      7.98256034	      1.31354382	     -8.46223191	     -4.06409899	     -4.44830308	      3.67619561	     27.86563547	     -3.24660219	      4.30785142	    -62.37123313	    -15.76289717	     -9.84967364	     22.08165272	      5.58943314	      4.66556942	      1.39105614
      3.38500000	     -9.71413811	     -4.46630597	      2.44276610	     -2.62060165	     -0.00771332	      0.46340169	     11.59615692	      7.67379475	      1.73485095	     -8.18774343	     -3.84787646	     -4.31984099	      3.74844450	     28.38031766	     -2.90681400	      3.97644110	    -61.75430042	    -15.10341294	     -9.74450601	     22.14917394	      5.57746304	      4.24737850	      1.74783053
      3.39000000	     -9.74539017	     -4.08463888	      2.11384941	     -2.61517448	     -0.00723324	      0.46412624	     11.08647388	      7.37740446	      2.11678313	     -7.93372404	     -3.63677054	     -4.22489090	      3.80387171	     28.87733848	     -2.58957617	      3.65060166	    -61.07590200	    -14.50154566	     -9.71480085	     22.17280709	      5.56639331	      3.85063808	      2.08684893
      3.39500000	     -9.75974887	     -3.73331575	      1.77010795	     -2.60973467	     -0.00682514	      0.46484184	     10.56681672	      7.11079163	      2.51210438	     -7.68839130	     -3.42741189	     -4.14538651	      3.84177322	     29.34306647	     -2.32367727	      3.30793577	    -60.34228178	    -13.94341656	     -9.73633533	     22.14953787	      5.54759517	      3.49259800	      2.43093443
      3.40000000	     -9.75958861	     -3.41109378	      1.41852733	     -2.60427900	     -0.00649740	      0.46553000	     10.03729890	      6.87051289	      2.91377654	     -7.44839848	     -3.22048417	     -4.09289268	      3.85216300	     29.78189348	     -2.10196529	      2.95700938	    -59.56088246	    -13.42119302	     -9.80551784	     22.06804615	      5.52160464	      3.17458983	      2.76714313
      3.40500000	     -9.73294032	     -3.11942533	      1.05854461	     -2.59882027	     -0.00623784	      0.46619808	      9.48628197	      6.65790243	      3.36169879	     -7.22153678	     -3.00664633	     -4.07472368	      3.83153606	     30.18182087	     -1.93128965	      2.58663887	    -58.73399834	    -12.92076453	     -9.91392043	     21.90159275	      5.47353865	      2.89381083	      3.10143755
      3.41000000	     -9.72856850	     -2.83788534	      0.72111917	     -2.59332913	     -0.00606561	      0.46681920	      8.97486115	      6.44794151	      3.73185786	     -7.01711449	     -2.79994157	     -4.08575319	      3.79470072	     30.58809220	     -1.76412388	      2.24482891	    -57.84457576	    -12.45846078	    -10.04160551	     21.71179054	      5.46316829	      2.62475055	      3.40250106
      3.41500000	     -9.69494455	     -2.58180629	      0.35460964	     -2.58782883	     -0.00594335	      0.46744658	      8.42779292	      6.26200795	      4.17229411	     -6.80465698	     -2.59167718	     -4.10448646	      3.72790749	     30.95069066	     -1.65868271	      1.85003464	    -56.91625230	    -12.02945518	    -10.19174713	     21.42784515	      5.42368122	      2.39211684	      3.72716920
      3.42000000	     -9.61492310	     -2.36890282	     -0.02528822	     -2.58234970	     -0.00586777	      0.46808817	      7.82955176	      6.11992166	      4.66967615	     -6.58739249	     -2.39229035	     -4.17098986	      3.60721250	     31.25894755	     -1.61994532	      1.43623159	    -55.96605970	    -11.61161600	    -10.35163229	     20.98670377	      5.33317810	      2.20401824	      4.03724643
      3.42500000	     -9.59336761	     -2.13644692	     -0.37564715	     -2.57684297	     -0.00587239	      0.46865910	      7.32195213	      5.94524217	      5.05174602	     -6.41288257	     -2.18892358	     -4.22361289	      3.52635713	     31.60066552	     -1.54775005	      1.05404371	    -54.92908771	    -11.24271488	    -10.48979207	     20.61779412	      5.31746505	      2.00176052	      4.32756475
      3.43000000	     -9.52472820	     -1.93603952	     -0.72910898	     -2.57136709	     -0.00591279	      0.46921354	      6.76278286	      5.79668873	      5.51685848	     -6.23962752	     -1.97614775	     -4.31266950	      3.40124422	     31.88254582	     -1.52142249	      0.65746456	    -53.86316793	    -10.87625785	    -10.62128728	     20.10453767	      5.24687457	      1.83420762	      4.57498159
